<svg width="19" height="19" viewBox="0 0 19 19" fill="none" xmlns="http://www.w3.org/2000/svg">
<path d="M9.38867 18.4697C8.18164 18.4697 7.04492 18.2383 5.97852 17.7754C4.91797 17.3184 3.98047 16.6855 3.16602 15.877C2.35742 15.0625 1.72168 14.125 1.25879 13.0645C0.801758 11.998 0.573242 10.8613 0.573242 9.6543C0.573242 8.44727 0.801758 7.31348 1.25879 6.25293C1.72168 5.18652 2.35742 4.24902 3.16602 3.44043C3.97461 2.62598 4.90918 1.99023 5.96973 1.5332C7.03613 1.07031 8.17285 0.838867 9.37988 0.838867C10.5869 0.838867 11.7236 1.07031 12.79 1.5332C13.8564 1.99023 14.7939 2.62598 15.6025 3.44043C16.4111 4.24902 17.0469 5.18652 17.5098 6.25293C17.9727 7.31348 18.2041 8.44727 18.2041 9.6543C18.2041 10.8613 17.9727 11.998 17.5098 13.0645C17.0469 14.125 16.4111 15.0625 15.6025 15.877C14.7939 16.6855 13.8564 17.3184 12.79 17.7754C11.7295 18.2383 10.5957 18.4697 9.38867 18.4697ZM9.38867 17.3359C10.4492 17.3359 11.4453 17.1367 12.377 16.7383C13.3086 16.3398 14.126 15.7891 14.8291 15.0859C15.5322 14.3828 16.0801 13.5684 16.4727 12.6426C16.8711 11.7109 17.0703 10.7148 17.0703 9.6543C17.0703 8.59375 16.8711 7.60059 16.4727 6.6748C16.0742 5.74316 15.5205 4.92578 14.8115 4.22266C14.1084 3.51367 13.2939 2.96289 12.3682 2.57031C11.4424 2.17188 10.4463 1.97266 9.37988 1.97266C8.31934 1.97266 7.32324 2.17188 6.3916 2.57031C5.46582 2.96289 4.65137 3.51367 3.94824 4.22266C3.25098 4.92578 2.70312 5.74316 2.30469 6.6748C1.91211 7.60059 1.71582 8.59375 1.71582 9.6543C1.71582 10.7148 1.91211 11.7109 2.30469 12.6426C2.70312 13.5684 3.25391 14.3828 3.95703 15.0859C4.66016 15.7891 5.47461 16.3398 6.40039 16.7383C7.32617 17.1367 8.32227 17.3359 9.38867 17.3359ZM5.33691 10.8584C4.99707 10.8584 4.70996 10.7412 4.47559 10.5068C4.24707 10.2725 4.13281 9.98828 4.13281 9.6543C4.13281 9.32617 4.24707 9.04492 4.47559 8.81055C4.70996 8.57617 4.99707 8.45898 5.33691 8.45898C5.65918 8.45898 5.9375 8.57617 6.17188 8.81055C6.40625 9.04492 6.52344 9.32617 6.52344 9.6543C6.52344 9.98828 6.40625 10.2725 6.17188 10.5068C5.94336 10.7412 5.66504 10.8584 5.33691 10.8584ZM9.37988 10.8584C9.05176 10.8584 8.77051 10.7412 8.53613 10.5068C8.30176 10.2725 8.18457 9.98828 8.18457 9.6543C8.18457 9.32617 8.30176 9.04492 8.53613 8.81055C8.77051 8.57617 9.05176 8.45898 9.37988 8.45898C9.70801 8.45898 9.98926 8.57617 10.2236 8.81055C10.458 9.04492 10.5752 9.32617 10.5752 9.6543C10.5752 9.98828 10.458 10.2725 10.2236 10.5068C9.98926 10.7412 9.70801 10.8584 9.37988 10.8584ZM13.4404 10.8584C13.1064 10.8584 12.8223 10.7412 12.5879 10.5068C12.3535 10.2725 12.2363 9.98828 12.2363 9.6543C12.2363 9.32617 12.3535 9.04492 12.5879 8.81055C12.8223 8.57617 13.1064 8.45898 13.4404 8.45898C13.7686 8.45898 14.0469 8.57617 14.2754 8.81055C14.5098 9.04492 14.627 9.32617 14.627 9.6543C14.627 9.98828 14.5098 10.2725 14.2754 10.5068C14.0469 10.7412 13.7686 10.8584 13.4404 10.8584Z" fill="white"/>
</svg>
