<svg width="22" height="19" viewBox="0 0 22 19" fill="none" xmlns="http://www.w3.org/2000/svg">
<path d="M21.0303 9.6543C21.0303 10 20.8867 10.3135 20.5996 10.5947C20.3184 10.8701 19.9375 11.0928 19.457 11.2627C18.9824 11.4326 18.458 11.5176 17.8838 11.5176H14.2715C14.0195 11.5176 13.8291 11.5439 13.7002 11.5967C13.5771 11.6494 13.4424 11.7578 13.2959 11.9219L7.32812 18.3643C7.13477 18.5752 6.90918 18.6807 6.65137 18.6807H5.51758C5.40625 18.6807 5.32129 18.6367 5.2627 18.5488C5.20996 18.4609 5.21289 18.3555 5.27148 18.2324L8.34766 11.5176L3.83887 11.0166L2.23047 13.8818C2.11328 14.0928 1.91406 14.1982 1.63281 14.1982H1.2373C1.12012 14.1982 1.02344 14.1631 0.947266 14.0928C0.876953 14.0166 0.841797 13.9199 0.841797 13.8027V5.50586C0.841797 5.38281 0.876953 5.28613 0.947266 5.21582C1.02344 5.13965 1.12012 5.10156 1.2373 5.10156H1.63281C1.91406 5.10156 2.11328 5.20996 2.23047 5.42676L3.83887 8.29199L8.34766 7.79102L5.27148 1.07617C5.21289 0.953125 5.20996 0.847656 5.2627 0.759766C5.32129 0.671875 5.40625 0.62793 5.51758 0.62793H6.65137C6.90918 0.62793 7.13477 0.733398 7.32812 0.944336L13.2959 7.37793C13.4424 7.54199 13.5771 7.65332 13.7002 7.71191C13.8291 7.76465 14.0195 7.79102 14.2715 7.79102H17.8838C18.458 7.79102 18.9824 7.87598 19.457 8.0459C19.9375 8.21582 20.3184 8.44141 20.5996 8.72266C20.8867 8.99805 21.0303 9.30859 21.0303 9.6543Z" fill="#047CF9"/>
</svg>
